<svg xmlns="http://www.w3.org/2000/svg" viewBox="0 0 939.76 469.93"><g id="Layer_2" data-name="Layer 2"><g id="Layer_1-2" data-name="Layer 1"><path d="M65.56,393.84a1.39,1.39,0,0,0,2.31,1.32C278,190,185.35,438.4,316.44,325.21c30.5-26.33,39.09-1.52,38.38,12.71,21.38-25.09,66-39,70.44,3.81a1.13,1.13,0,0,0,1.91.69c37.52-36.44,88.17-49.93,130.5-5.52,30.51,32,70.14-16.6,100.43-25.61a10.24,10.24,0,0,1,12.9,7.48c2.83,12.1,3.4,31.27,12,27.91,58-27.49,52.72-81.93,56.52-135.68,2-28,4.79-58.61,3.37-58.68-25.57-1.2-111.06,14.11-159.39,35.46a323.79,323.79,0,0,0-76.05,46.35c-3.12,13.18-1.12,23.71-19.81,18-27-17.17,8.48-52.69,24.72-64.48,100.11-72.72,234.18-81.69,234.18-81.69,20-115.35,101.21-143.57,169.85-49.26,29.17,37.9,41.13,141.92-25.36,143.76-36.65-4.27-66.21-31.14-102.17-39.38C776.15,265.24,762.79,342.79,777,449.51a17,17,0,0,1-9.4,17.69C733.7,482.89,738,378.25,733,351.16a.84.84,0,0,0-1.38-.48c-27.4,23-91.09,42.17-84.68-10.76a1.06,1.06,0,0,0-1.67-1c-141.13,102.41-88.46-62.65-198.58,30.36-40.75,33-55.05,19.66-51.19-25.7a2.31,2.31,0,0,0-3.47-2.19c-17,10-28.66,36.88-49.87,39.36-19.27-1-1.64-48.68-10.77-41.73-55.81,42.56-86.62,106.66-136.47,23.13a12.86,12.86,0,0,0-16.37-5.11C122.69,382.35,47.61,528.44,8.61,443.86c-62.54-135.65,234-442.15,302-210.06,5.28,18-15.39,28.21-24.39,14.17-18.71-29.19-47.7-78.61-124-21.73C130.48,249.91,73.91,317.44,65.56,393.84ZM789.63,112.23c37.94,6.68,104.21,70.21,112,47.18C932.67,68.41,806.36-31,789.63,112.23Z"/><circle cx="673.34" cy="256.81" r="23.97"/></g></g></svg>